<?xml version="1.0" encoding="UTF-8" standalone="no"?>
<!-- Created with Inkscape (http://www.inkscape.org/) -->

<svg
   width="29.390301mm"
   height="21.776461mm"
   viewBox="0 0 29.390301 21.776461"
   version="1.1"
   id="svg1"
   inkscape:version="1.3.2 (091e20e, 2023-11-25, custom)"
   sodipodi:docname="mammoth mark.svg"
   xml:space="preserve"
   xmlns:inkscape="http://www.inkscape.org/namespaces/inkscape"
   xmlns:sodipodi="http://sodipodi.sourceforge.net/DTD/sodipodi-0.dtd"
   xmlns="http://www.w3.org/2000/svg"
   xmlns:svg="http://www.w3.org/2000/svg"><sodipodi:namedview
     id="namedview1"
     pagecolor="#ffffff"
     bordercolor="#cccccc"
     borderopacity="1"
     inkscape:showpageshadow="0"
     inkscape:pageopacity="1"
     inkscape:pagecheckerboard="0"
     inkscape:deskcolor="#d1d1d1"
     inkscape:document-units="mm"
     inkscape:zoom="6.5246072"
     inkscape:cx="104.8339"
     inkscape:cy="73.337748"
     inkscape:window-width="3840"
     inkscape:window-height="2066"
     inkscape:window-x="2149"
     inkscape:window-y="1044"
     inkscape:window-maximized="1"
     inkscape:current-layer="layer1" /><defs
     id="defs1" /><g
     inkscape:label="Layer 1"
     inkscape:groupmode="layer"
     id="layer1"
     transform="translate(-142.875,-100.80625)"><path
       style="opacity:1;fill:#999999;fill-opacity:1;stroke-width:5.21346;stroke-opacity:0.45098"
       d="M 0.0413929,65.023071 C 0.10113188,46.211121 0.06853419,46.977151 1.0115521,42.224764 3.6024377,29.167863 11.360256,17.264491 22.272752,9.6021943 29.396369,4.6002897 37.230592,1.5648433 46.133045,0.35729001 49.011406,-0.03313872 56.375351,-0.03259326 59.16065,0.35825499 68.681545,1.6942785 76.818709,5.0119612 84.219629,10.575296 c 10.781299,8.104394 17.904531,19.802896 20.233791,33.229982 0.39095,2.253676 0.57296,4.325514 0.83728,9.531266 0.17227,3.392604 0.47881,4.958029 1.30878,6.683607 0.86554,1.799529 2.60638,3.125413 4.10356,3.125413 h 0.45023 l -0.1103,9.464171 c -0.0607,5.205294 -0.15485,9.511638 -0.20931,9.569652 -0.1547,0.164793 -3.25596,-0.150588 -4.74727,-0.482772 C 98.989708,80.115854 93.139192,75.390775 89.6639,68.433238 87.556825,64.214874 86.347722,59.16372 86.277773,54.28734 c -0.02942,-2.050997 -0.179552,-2.828693 -0.688714,-3.567594 -1.042844,-1.513391 -3.389698,-1.689751 -4.724421,-0.355028 -0.990377,0.990377 -0.9322,-0.0036 -0.979052,16.727444 l -0.0426,15.211643 H 71.34101 62.839032 V 67.446988 c 0,-9.908286 -0.05306,-14.996368 -0.159291,-15.275788 -0.338923,-0.891434 -1.398668,-1.122279 -2.070031,-0.450914 l -0.376199,0.376197 v 15.103662 15.10366 h -8.582892 -8.582892 l -0.0034,-15.211643 c -0.0032,-14.426742 -0.01788,-15.243605 -0.284722,-15.831048 -0.300182,-0.660846 -1.053662,-1.384631 -1.69573,-1.628895 -0.215492,-0.08198 -0.746986,-0.149093 -1.181098,-0.149137 -1.371147,-1.41e-4 -2.500261,0.825096 -2.944555,2.152091 -0.125685,0.375391 -0.174432,4.733526 -0.174432,15.594808 V 82.303805 H 28.200931 19.618039 V 67.200145 52.096483 L 19.24184,51.720286 c -0.497775,-0.497777 -1.286217,-0.507491 -1.742808,-0.02147 L 17.165784,52.05354 V 67.178673 82.303805 H 8.5761505 -0.01348356 Z"
       id="path1"
       transform="matrix(0.26458333,0,0,0.26458333,142.875,100.80625)" /></g></svg>
