<?xml version="1.0" encoding="UTF-8" standalone="no"?>
<!-- Created with Inkscape (http://www.inkscape.org/) -->

<svg
   width="46.307636mm"
   height="30.217333mm"
   viewBox="0 0 46.307636 30.217333"
   version="1.1"
   id="svg1"
   inkscape:version="1.3.2 (091e20e, 2023-11-25, custom)"
   sodipodi:docname="mammoth-mark-blue.svg"
   xmlns:inkscape="http://www.inkscape.org/namespaces/inkscape"
   xmlns:sodipodi="http://sodipodi.sourceforge.net/DTD/sodipodi-0.dtd"
   xmlns="http://www.w3.org/2000/svg"
   xmlns:svg="http://www.w3.org/2000/svg">
  <sodipodi:namedview
     id="namedview1"
     pagecolor="#ffffff"
     bordercolor="#cccccc"
     borderopacity="1"
     inkscape:showpageshadow="0"
     inkscape:pageopacity="1"
     inkscape:pagecheckerboard="0"
     inkscape:deskcolor="#d1d1d1"
     inkscape:document-units="mm"
     inkscape:zoom="1.6311518"
     inkscape:cx="56.401863"
     inkscape:cy="72.648052"
     inkscape:window-width="3840"
     inkscape:window-height="2066"
     inkscape:window-x="2149"
     inkscape:window-y="1044"
     inkscape:window-maximized="1"
     inkscape:current-layer="layer1" />
  <defs
     id="defs1" />
  <g
     inkscape:label="Layer 1"
     inkscape:groupmode="layer"
     id="layer1"
     transform="translate(-270.40418,-116.94583)">
    <path
       id="path33"
       style="fill:#7d8ea5;fill-opacity:1;stroke-width:10.2182;stroke-opacity:0.45098"
       d="m 308.8214,116.94586 c -11.72812,-0.0193 -34.81821,8.69878 -37.40039,12.44527 -3.17804,4.61107 2.10863,17.77203 2.10863,17.77203 h 6.56644 6.39574 l -0.49518,-4.92721 c -0.0807,-0.79999 0.45968,-1.50933 1.20626,-1.58408 0.74635,-0.0747 1.4164,0.51273 1.49668,1.31244 l 0.52278,5.19885 h 6.50033 6.16437 l 1.04903,-10.4405 c 0.0803,-0.79999 0.75076,-1.38769 1.49729,-1.31245 0.74637,0.0751 1.28616,0.78431 1.20569,1.58408 l -1.02145,10.16887 h 3.60636 3.25225 c 0,0 9.14957,-22.74574 3.25801,-28.63729 -1.10465,-1.10469 -3.20635,-1.57505 -5.91284,-1.58001 z"
       sodipodi:nodetypes="cccccccccccccccccsc"
       inkscape:export-filename="mammoth-mark-blue.png"
       inkscape:export-xdpi="96"
       inkscape:export-ydpi="96" />
  </g>
</svg>
