<?xml version="1.0" encoding="UTF-8" standalone="no"?>
<!-- Created with Inkscape (http://www.inkscape.org/) -->

<svg
   width="27.324265mm"
   height="17.830029mm"
   viewBox="0 0 27.324265 17.830029"
   version="1.1"
   id="svg1"
   inkscape:version="1.3.2 (091e20e, 2023-11-25, custom)"
   sodipodi:docname="mammoth-mark.svg"
   xmlns:inkscape="http://www.inkscape.org/namespaces/inkscape"
   xmlns:sodipodi="http://sodipodi.sourceforge.net/DTD/sodipodi-0.dtd"
   xmlns="http://www.w3.org/2000/svg"
   xmlns:svg="http://www.w3.org/2000/svg">
  <sodipodi:namedview
     id="namedview1"
     pagecolor="#ffffff"
     bordercolor="#cccccc"
     borderopacity="1"
     inkscape:showpageshadow="0"
     inkscape:pageopacity="1"
     inkscape:pagecheckerboard="0"
     inkscape:deskcolor="#d1d1d1"
     inkscape:document-units="mm"
     inkscape:zoom="1.6311518"
     inkscape:cx="51.497353"
     inkscape:cy="33.411973"
     inkscape:window-width="3840"
     inkscape:window-height="2066"
     inkscape:window-x="2149"
     inkscape:window-y="1044"
     inkscape:window-maximized="1"
     inkscape:current-layer="layer1" />
  <defs
     id="defs1" />
  <g
     inkscape:label="Layer 1"
     inkscape:groupmode="layer"
     id="layer1"
     transform="translate(-91.281251,-139.7)">
    <path
       id="rect5-5"
       style="fill:#999999;fill-opacity:1;stroke-width:6.02932;stroke-opacity:0.45098"
       d="m 113.9497,139.70002 c -6.92029,-0.0114 -20.54482,5.1328 -22.06846,7.34345 -1.87523,2.72081 1.24422,10.48656 1.24422,10.48656 h 3.87459 3.77387 l -0.29219,-2.90735 c -0.0476,-0.47204 0.27124,-0.89059 0.71177,-0.9347 0.44039,-0.0441 0.83576,0.30254 0.88313,0.77442 l 0.30847,3.06763 h 3.83558 3.63735 l 0.61899,-6.16052 c 0.0474,-0.47204 0.44299,-0.81882 0.88349,-0.77442 0.4404,0.0443 0.75891,0.46279 0.71143,0.9347 l -0.60272,6.00024 h 2.12797 1.91902 c 0,0 5.39879,-13.42134 1.92242,-16.89771 -0.65181,-0.65183 -1.89194,-0.92937 -3.48893,-0.9323 z"
       sodipodi:nodetypes="cccccccccccccccccsc" />
  </g>
</svg>
